<svg xmlns="http://www.w3.org/2000/svg" viewBox="0 0 512 512"><path fill="#014fe5" d="M55.4 136H168v112.6H55.4zM55.4 263.5H168v112.6H55.4z"/><path d="M440 408v14.9c.2 14.6-4.6 27.7-14.2 38.5-7.8 8.8-11.5 18.2-9.9 29.9.5 3.9.1 8 .1 12.4H272c0-8.3.2-16.4-.1-24.4-.1-3.4-.9-6.9-2.3-9.9-3.3-7.4-7.2-14.6-10.8-22-2.9-6.1-6.3-12.2-8.2-18.7-1.9-6.4-2.3-13.3-3.5-20.6H35.3C17.5 408 8 398.6 8 380.9V35C8 17.4 17.5 8 35.2 8h441.4c18 0 27.3 9.4 27.3 27.5V381c0 17.7-9.5 27.1-27.2 27.1-12-.1-24.2-.1-36.7-.1zm48-287.7H24v261.3c0 7.7 2.7 10.4 10.6 10.4h213v-16.2h-63.4v-112h111.3v-16.1H184.2V136.3h287.4V248H344.3v16.1h127.3v112.1h-31.4V392h35.6c9.9 0 12.1-2.1 12.1-11.9v-254c.1-1.8.1-3.6.1-5.8zm0-16.6V34c0-7.4-2.8-10.1-10.4-10.1-147.8.1-295.6.1-443.4.1C26.7 24 24 26.7 24 34.2v69.6c154.7-.1 308.9-.1 464-.1zM359.9 351.8c0-10.9.1-21.2 0-31.5-.1-4.8-3.4-8.1-7.7-8.2-4.1-.1-7.6 2.9-8.1 7.2-.2 1.6-.1 3.3-.1 5v27.4h-16V227.9c0-1.5.1-3-.1-4.5-.5-4.4-3.9-7.4-8-7.4-4.2.1-7.4 3.1-7.8 7.6-.2 1.7-.1 3.3-.1 5v170.9h-16c0-10.4.2-20.5 0-30.6-.4-20.2-15.5-37.6-35.4-40.5-3.7-.5-8.6-.4-11.1 1.7-3.8 3.1.2 7.2 2 10.2 10 16.7 14.3 34.6 12.7 54-.4 5 .1 10-.1 15-.3 8.5 1.7 16.4 5.7 24 3.9 7.5 7.2 15.4 11.4 22.7 5 8.9 8.4 18 7 28.4-.1.9.1 1.9.3 3.3h111.7c0-3.9.3-7.5-.1-11.1-.5-5 1-8.9 4.2-12.8 4.4-5.3 8.3-10.8 12.3-16.4 4.9-6.8 7.5-14.5 7.5-22.9.1-29 .1-58 0-87 0-5.9-3.2-9.5-8-9.5s-7.9 3.6-8 9.5c-.1 4.8 0 9.5 0 14.2h-16v-30.1c0-5.9-3.1-9.5-7.9-9.6s-8 3.5-8.1 9.4c-.1 3.7 0 7.3 0 11v19.4h-16.2zM200.4 152.1v79.6h95.3c1.6-21.5 8.8-31.1 23.2-31.6 5.9-.2 11.2 1.5 15.8 5.1 8.8 6.8 9.8 16.4 9.2 26.5h111.6v-79.6H200.4zm95.4 128.2h-95.9v77.3c0 .6.2 1.3.3 2h42.7c-3.1-6.3-6.1-12-8.8-17.8-6.7-14.7 3.2-30 19.3-30 14.8 0 27.7 5.1 38.8 14.8 1 .9 2.1 1.7 3.6 2.9v-49.2zm111.4 32.9c20.3-5.5 34.8 9.4 32.9 28-.6 6.1-.1 12.2-.1 18.5h15.6v-79.4H344.2v17c9-2.8 16.9-.6 23.8 4.8 12.4-10.3 31.6-7.8 39.2 11.1z"/><path d="m137.7 161.5 11.3 11.3-44.9 44.9c-6.5-6.4-13.8-13.5-21.3-20.9 3.3-3 7.1-6.4 11.3-10.3 2.8 2.7 6.1 5.9 9.6 9.2 11.3-11.3 22.4-22.5 34-34.2zM103.1 325.2c12.4-12.5 23.6-23.7 34.6-34.8 4.1 4 7.8 7.7 11.1 11.1-15 15-30.1 30.1-44.9 45-6.8-6.8-13.9-14-20.9-21.1 3.3-3.1 7.1-6.8 11.9-11.3 2.4 3.1 5.1 6.9 8.2 11.1zM40.2 87.6V40.2h47.4v47.4H40.2zm16-16h15.4V56.2H56.2v15.4zM151.6 87.7h-47.4V40.3h47.4v47.4zm-31.3-31.6v15.6h15.3V56.1h-15.3zM168.3 40.2h47.4v47.4h-47.4V40.2zm31.4 31.5V56.3h-15.3v15.4h15.3zM248.2 183.6v-15.4h191.5v15.4H248.2zM439.7 200.3v15.4h-79.4v-15.4h79.4zM279.7 215.8h-63.4v-15.5h63.4v15.5zM231.6 183.9h-15.3v-15.6h15.3v15.6z"/></svg>