<?xml version="1.0" encoding="utf-8"?>
<!-- Generator: Adobe Illustrator 26.3.1, SVG Export Plug-In . SVG Version: 6.00 Build 0)  -->
<svg version="1.1" id="Layer_1" xmlns="http://www.w3.org/2000/svg" xmlns:xlink="http://www.w3.org/1999/xlink" x="0px" y="0px"
	 viewBox="0 0 256 256" style="enable-background:new 0 0 256 256;" xml:space="preserve">
<path d="M112,168c-2,0-4.1-0.8-5.7-2.3l-24-24c-3.1-3.1-3.1-8.2,0-11.3c3.1-3.1,8.2-3.1,11.3,0l18.3,18.3l50.3-50.3
	c3.1-3.1,8.2-3.1,11.3,0c3.1,3.1,3.1,8.2,0,11.3l-56,56C116.1,167.2,114,168,112,168z"/>
<path d="M128,232c-57.3,0-104-46.7-104-104S70.7,24,128,24s104,46.7,104,104S185.3,232,128,232z M128,40c-48.5,0-88,39.5-88,88
	s39.5,88,88,88s88-39.5,88-88S176.5,40,128,40z"/>
</svg>
