<svg xmlns="http://www.w3.org/2000/svg" viewBox="0 0 512 512" role="img"><title>Cookie</title><path d="M232 1.1c-13.4 1.4-36.5 6.2-49.8 10.4C111.8 33.9 52.3 87.1 21.9 155c-10.7 23.9-18.5 53.5-20.8 79C-9.3 347.3 62.7 457.6 173 497.3c14.1 5.1 32.5 9.9 38.3 10.1 5.1.1 9.7-4.6 9.7-10 0-5.9-3.7-8.6-15.5-11.3-85.4-19.7-156.2-88.8-178-173.6C9.2 241.2 25.6 168 73.1 109c10.1-12.6 30.9-32.6 43.8-42 43.8-32.3 95.5-48.7 146.5-46.7 8.2.4 15 .8 15.1.9.1.2-.4 3.9-1.2 8.3-1.7 9.3-1.2 23 1.2 32 3.6 14 13 28.9 24.2 38.6 4.6 4 4.8 4.5 4.3 8.3-.3 2.3-.4 9.3-.4 15.6.2 9.2.7 13.3 2.8 20.3 8.6 28.9 29.4 49.7 58.3 58.3 7 2.1 11.1 2.6 20.3 2.8 6.3 0 13.4-.1 15.6-.4 3.9-.5 4.3-.3 7.9 4 9 10.8 25 20.9 39 24.5 9 2.4 22.7 2.9 32 1.2 4.4-.8 8.2-1.2 8.5-1 .3.3.5 10 .5 21.6 0 23.9-1.5 35.8-7 57.2-10.4 40.6-32 78-63 109-32.2 32.3-72.4 54.9-115 64.6-11.7 2.6-15.5 5.4-15.5 11.2 0 3.9 3.1 8.4 6.7 9.8 2.9 1.1 15.5-1.5 30.8-6.2 89.4-27.6 159.9-105.1 178.4-196.1 3.7-17.9 4.6-28 4.5-49.3-.1-21.9-1.9-39-4.5-42.2-.8-.9-2.8-2.2-4.6-2.9-2.8-1.2-4-1.1-12.3 1.7-5.2 1.7-12.5 3.2-16.9 3.6-19.6 1.5-39.5-8.4-49.9-24.7-2-3-4.3-6-5.1-6.7-2.1-1.6-8.3-1.6-15.6.2-26.1 6.3-56.9-9-69.4-34.5-6.4-13.1-8.6-27.5-6-39 1.8-7.8 2.1-15.4.7-17.1-.7-.8-3.8-3.1-6.8-5.1-16.3-10.4-26.2-30.3-24.7-49.9.4-4.4 1.9-11.7 3.6-16.9 2.8-8.3 2.9-9.5 1.7-12.3-2-4.8-3.8-5.8-13.3-7.3C277 .6 244.3-.2 232 1.1z"/><path d="M186.6 87c-6.3 1.6-15.3 7-19.7 11.7-2.2 2.4-5.5 7.4-7.2 11.1-2.9 6.1-3.2 7.6-3.2 16.3 0 9 .2 9.9 3.7 17.1 4.5 9.1 10.3 14.7 19.6 19.1 6.1 2.9 7.6 3.2 16.2 3.2s10.1-.3 16.2-3.2c9.3-4.4 15.1-10 19.6-19.1 3.5-7.2 3.7-8.1 3.7-17.2s-.2-10-3.7-17.2C225 95.2 213 87.1 198.2 86.4c-4.2-.2-9.4.1-11.6.6zm20.4 22.4c5.9 3.9 8.5 8.9 8.5 16.6 0 7.8-2.6 12.7-8.8 16.8-5.6 3.7-15.3 3.9-21 .3-7.6-4.7-11.1-14-8.8-22.9 1.4-5.1 7.5-11.7 12.3-13.1 5.3-1.6 13.5-.6 17.8 2.3zm64.1 78c-8.7 4.8-5 18.6 4.9 18.6 5.1 0 10-4.9 10-9.9 0-7.5-8.3-12.4-14.9-8.7zm-170 30c-8.7 4.8-5 18.6 4.9 18.6 5.1 0 10-4.9 10-9.9 0-7.5-8.3-12.4-14.9-8.7zm125.2 30.4c-25.1 9-27.2 43.2-3.5 54.9 8.1 4 18.3 4 26.4 0 10.7-5.3 16.3-14.4 16.3-26.7 0-8.5-2.1-14.2-7.4-20.3-7.2-8.1-21.3-11.7-31.8-7.9zm14.6 19.6c6.7 3.5 6.5 14.3-.4 17.4-9.1 4.1-17.9-5.1-13.1-13.7 2.6-4.7 8.4-6.3 13.5-3.7zm130.2-20c-8.7 4.8-5 18.6 4.9 18.6 5.1 0 10-4.9 10-9.9 0-7.5-8.3-12.4-14.9-8.7zM336.6 307c-6.3 1.6-15.3 7-19.7 11.7-2.2 2.4-5.5 7.4-7.2 11.1-2.9 6.1-3.2 7.6-3.2 16.3 0 9 .2 9.9 3.7 17.1 4.5 9.1 10.3 14.7 19.6 19.1 6.1 2.9 7.6 3.2 16.2 3.2s10.1-.3 16.2-3.2c9.3-4.4 15.1-10 19.6-19.1 3.5-7.2 3.7-8.1 3.7-17.2s-.2-10-3.7-17.2c-6.8-13.6-18.8-21.7-33.6-22.4-4.2-.2-9.4.1-11.6.6zm20.4 22.4c5.9 3.9 8.5 8.9 8.5 16.6 0 7.8-2.6 12.7-8.8 16.8-5.6 3.7-15.3 3.9-21 .3-7.6-4.7-11.1-14-8.8-22.9 1.4-5.1 7.5-11.7 12.3-13.1 5.3-1.6 13.5-.6 17.8 2.3zM136.6 317c-6.3 1.6-15.3 7-19.7 11.7-2.2 2.4-5.5 7.4-7.2 11.1-2.9 6.1-3.2 7.6-3.2 16.3 0 9 .2 9.9 3.7 17.1 4.5 9.1 10.3 14.7 19.6 19.1 6.1 2.9 7.6 3.2 16.2 3.2s10.1-.3 16.2-3.2c9.3-4.4 15.1-10 19.6-19.1 3.5-7.2 3.7-8.1 3.7-17.2s-.2-10-3.7-17.2c-6.8-13.6-18.8-21.7-33.6-22.4-4.2-.2-9.4.1-11.6.6zm20.4 22.4c5.9 3.9 8.5 8.9 8.5 16.6 0 7.8-2.6 12.7-8.8 16.8-5.6 3.7-15.3 3.9-21 .3-7.6-4.7-11.1-14-8.8-22.9 1.4-5.1 7.5-11.7 12.3-13.1 5.3-1.6 13.5-.6 17.8 2.3zm94.1 58c-8.7 4.8-5 18.6 4.9 18.6 5.1 0 10-4.9 10-9.9 0-7.5-8.3-12.4-14.9-8.7zm0 96c-8.7 4.8-5 18.6 4.9 18.6 5.1 0 10-4.9 10-9.9 0-7.5-8.3-12.4-14.9-8.7z"/></svg>