<svg xmlns="http://www.w3.org/2000/svg" xml:space="preserve" viewBox="0 0 16.3 15" width=14.3 height=13><path d="M7.9 6.4C6.7 5.1 5.4 3.7 4.1 2.3L2.5.6C2.4.5 2.2.2 1.7.1 1.5.1.9 0 .5.3-.1.7.1 1.5.1 1.7c.1.4.3.6.4.7l.1.1c.6.6 1.2 1.3 1.8 1.9l2.9 3.1-1.8 1.9c-1 1.1-2.1 2.2-3.1 3.3-.3.3-.4.7-.4 1.1 0 .3.2.7.4.9.3.2.6.3.9.3.4 0 .8-.2 1.1-.5l.1-.1L8 8.6c.4-.5.8-1.3-.1-2.2z"/><path d="M15.8 6.4 10.3.6C9.9.2 9.5 0 9 0c-.4 0-.7.2-.9.5-.3.4-.6 1.1.3 2l4.8 5.1c-.2.1-.5.4-.7.6l-4.2 4.5c-.7.7-.5 1.5 0 1.9.2.3.5.4.8.4.4 0 .7-.2 1-.5l5.6-5.9c.8-.7.8-1.4.1-2.2z"/></svg>