<svg xmlns="http://www.w3.org/2000/svg" xml:space="preserve" viewBox="0 0 16.3 15" width=14.36 height=13><path d="M8.4 6.4C9.7 5 11 3.7 12.2 2.3L13.8.6c.1-.1.3-.4.8-.5.2 0 .7-.1 1.2.2.6.4.4 1.2.4 1.4-.1.4-.3.6-.4.7l-.1.1c-.6.6-1.2 1.3-1.8 1.9L11 7.5l1.8 1.9c1 1.1 2.1 2.2 3.1 3.3.3.3.5.7.4 1 0 .3-.2.7-.4.9-.3.3-.6.4-.9.4-.4 0-.8-.2-1.1-.5l-.1-.1-5.4-5.8c-.5-.5-.9-1.3 0-2.2z"/><path d="M.5 6.4 6 .6c.4-.4.9-.6 1.3-.6s.7.2.9.5c.3.3.6 1.1-.3 1.9L3.1 7.5c.3.2.5.5.7.7L8 12.7c.7.7.5 1.5 0 1.9-.2.3-.5.4-.8.4-.4 0-.7-.2-1-.5L.5 8.6c-.7-.7-.7-1.4 0-2.2z"/></svg>