<svg xmlns="http://www.w3.org/2000/svg" xml:space="preserve" viewBox="0 0 772.4 379.4" role="img"><!--<style>.st1{fill:#007c91}</style>--><path d="M379.4 0H0v379.4C0 169.9 169.9 0 379.4 0z" fill="currentcolor"/><path d="M83.8 377.1v2.3h295.6V83.8h-2.3c-162 0-293.3 131.3-293.3 293.3z" fill="currentcolor"/><path d="M423.5 75.6V17.9h23.1c4.2 0 7.8.6 10.6 1.9 2.8 1.3 5 3 6.4 5.2 1.4 2.2 2.1 4.8 2.1 7.7 0 2.3-.5 4.2-1.4 5.9-.9 1.7-2.1 3.1-3.7 4.2s-3.4 1.8-5.4 2.3v.6c2.2.1 4.3.7 6.2 1.9 1.9 1.1 3.5 2.7 4.7 4.8 1.2 2.1 1.8 4.5 1.8 7.3 0 3.1-.8 5.8-2.3 8.2-1.5 2.4-3.7 4.3-6.7 5.7-2.9 1.4-6.6 2.1-10.9 2.1h-24.5zM435.7 42h9c1.7 0 3.2-.3 4.5-.9 1.3-.6 2.3-1.4 3.1-2.5.8-1.1 1.1-2.4 1.1-3.9 0-2.1-.7-3.8-2.2-5-1.5-1.3-3.6-1.9-6.3-1.9h-9.3V42zm0 23.6h9.9c3.4 0 5.9-.7 7.4-2 1.6-1.3 2.3-3 2.3-5.2 0-1.6-.4-3-1.2-4.2-.8-1.2-1.9-2.2-3.3-2.9-1.4-.7-3.1-1-5.1-1h-10.2v15.3zM488 76.4c-2.8 0-5.2-.5-7.4-1.5s-3.9-2.4-5.1-4.3c-1.2-1.9-1.9-4.3-1.9-7.1 0-2.4.4-4.4 1.3-6.1.9-1.6 2.1-2.9 3.6-3.9s3.3-1.7 5.2-2.3c1.9-.5 4-.9 6.1-1.1 2.5-.3 4.5-.5 6.1-.7 1.5-.2 2.7-.6 3.3-1.1.7-.5 1-1.2 1-2.1V46c0-1.8-.6-3.2-1.7-4.1-1.1-1-2.7-1.5-4.7-1.5-2.2 0-3.9.5-5.2 1.4-1.3.9-2.1 2.1-2.5 3.6l-11.1-.9c.6-2.6 1.7-4.9 3.3-6.8 1.7-1.9 3.8-3.4 6.4-4.4 2.6-1 5.7-1.6 9.1-1.6 2.4 0 4.7.3 6.9.8 2.2.6 4.2 1.4 5.9 2.6 1.7 1.2 3.1 2.7 4.1 4.5 1 1.8 1.5 4.1 1.5 6.6v29.2H501v-6h-.3c-.7 1.4-1.6 2.5-2.8 3.6-1.2 1-2.6 1.8-4.2 2.4-1.7.7-3.6 1-5.7 1zm3.4-8.3c1.8 0 3.3-.4 4.7-1.1 1.4-.7 2.4-1.7 3.2-2.9.8-1.2 1.2-2.6 1.2-4.1v-4.6c-.4.2-.9.5-1.5.7-.6.2-1.4.4-2.2.5-.8.2-1.6.3-2.4.4-.8.1-1.5.2-2.2.3-1.4.2-2.6.5-3.7 1-1.1.4-1.9 1.1-2.4 1.8-.6.8-.9 1.7-.9 2.8 0 1.6.6 2.9 1.8 3.7 1.1 1.1 2.6 1.5 4.4 1.5zM533.6 50.6v25h-12V17.9h11.7v22h.5c1-2.6 2.6-4.6 4.7-6 2.2-1.5 4.9-2.2 8.2-2.2 3 0 5.6.7 7.9 2 2.2 1.3 4 3.2 5.2 5.6 1.2 2.4 1.9 5.3 1.8 8.7v27.5h-12V50.2c0-2.7-.7-4.7-2-6.2-1.4-1.5-3.3-2.2-5.7-2.2-1.6 0-3.1.3-4.3 1-1.2.7-2.2 1.7-2.9 3-.7 1.3-1 2.9-1.1 4.8zM583.5 76.4c-2.8 0-5.2-.5-7.4-1.5s-3.9-2.4-5.1-4.3c-1.2-1.9-1.9-4.3-1.9-7.1 0-2.4.4-4.4 1.3-6.1.9-1.6 2.1-2.9 3.6-3.9s3.3-1.7 5.2-2.3c1.9-.5 4-.9 6.1-1.1 2.5-.3 4.5-.5 6.1-.7 1.5-.2 2.7-.6 3.3-1.1.7-.5 1-1.2 1-2.1V46c0-1.8-.6-3.2-1.7-4.1-1.1-1-2.7-1.5-4.7-1.5-2.2 0-3.9.5-5.2 1.4-1.3.9-2.1 2.1-2.5 3.6l-11.1-.9c.6-2.6 1.7-4.9 3.3-6.8 1.7-1.9 3.8-3.4 6.4-4.4 2.6-1 5.7-1.6 9.1-1.6 2.4 0 4.7.3 6.9.8 2.2.6 4.2 1.4 5.9 2.6 1.7 1.2 3.1 2.7 4.1 4.5 1 1.8 1.5 4.1 1.5 6.6v29.2h-11.4v-6h-.3c-.7 1.4-1.6 2.5-2.8 3.6-1.2 1-2.6 1.8-4.2 2.4-1.5.7-3.4 1-5.5 1zm3.4-8.3c1.8 0 3.3-.4 4.7-1.1s2.4-1.7 3.2-2.9c.8-1.2 1.2-2.6 1.2-4.1v-4.6c-.4.2-.9.5-1.5.7-.6.2-1.4.4-2.2.5-.8.2-1.6.3-2.4.4s-1.5.2-2.2.3c-1.4.2-2.6.5-3.7 1-1.1.4-1.9 1.1-2.4 1.8-.6.8-.9 1.7-.9 2.8 0 1.6.6 2.9 1.8 3.7 1 1.1 2.6 1.5 4.4 1.5zM617.1 75.6V32.3h11.4V40h.5c.9-2.5 2.4-4.5 4.5-6s4.6-2.2 7.5-2.2c3 0 5.5.7 7.6 2.2 2.1 1.5 3.5 3.5 4.2 6h.5c.9-2.5 2.5-4.5 4.8-6s5.1-2.2 8.2-2.2c4 0 7.3 1.3 9.8 3.8 2.5 2.6 3.8 6.2 3.8 10.9v29.1h-12V48.8c0-2.4-.6-4.2-1.9-5.4-1.3-1.2-2.9-1.8-4.8-1.8-2.2 0-3.9.7-5.1 2.1-1.2 1.4-1.8 3.2-1.8 5.4v26.4h-11.6v-27c0-2.1-.6-3.8-1.8-5.1-1.2-1.3-2.8-1.9-4.8-1.9-1.3 0-2.5.3-3.6 1s-1.9 1.6-2.5 2.8c-.6 1.2-.9 2.6-.9 4.2v26h-12zM701.7 76.4c-2.8 0-5.2-.5-7.4-1.5s-3.9-2.4-5.1-4.3c-1.2-1.9-1.9-4.3-1.9-7.1 0-2.4.4-4.4 1.3-6.1.9-1.6 2.1-2.9 3.6-3.9s3.3-1.7 5.2-2.3c1.9-.5 4-.9 6.1-1.1 2.5-.3 4.5-.5 6.1-.7 1.5-.2 2.7-.6 3.3-1.1.7-.5 1-1.2 1-2.1V46c0-1.8-.6-3.2-1.7-4.1-1.1-1-2.7-1.5-4.7-1.5-2.2 0-3.9.5-5.2 1.4-1.3.9-2.1 2.1-2.5 3.6l-11.1-.9c.6-2.6 1.7-4.9 3.3-6.8 1.7-1.9 3.8-3.4 6.4-4.4 2.6-1 5.7-1.6 9.1-1.6 2.4 0 4.7.3 6.9.8 2.2.6 4.2 1.4 5.9 2.6 1.7 1.2 3.1 2.7 4.1 4.5 1 1.8 1.5 4.1 1.5 6.6v29.2h-11.4v-6h-.3c-.7 1.4-1.6 2.5-2.8 3.6-1.2 1-2.6 1.8-4.2 2.4-1.4.7-3.3 1-5.5 1zm3.5-8.3c1.8 0 3.3-.4 4.7-1.1s2.4-1.7 3.2-2.9c.8-1.2 1.2-2.6 1.2-4.1v-4.6c-.4.2-.9.5-1.5.7-.6.2-1.4.4-2.2.5-.8.2-1.6.3-2.4.4-.8.1-1.5.2-2.2.3-1.4.2-2.6.5-3.7 1-1.1.4-1.9 1.1-2.5 1.8-.6.8-.9 1.7-.9 2.8 0 1.6.6 2.9 1.8 3.7 1.1 1.1 2.6 1.5 4.5 1.5zM771.4 44.7l-11 .7c-.2-.9-.6-1.8-1.2-2.5-.6-.8-1.4-1.4-2.4-1.8-1-.5-2.2-.7-3.6-.7-1.9 0-3.4.4-4.7 1.2-1.3.8-1.9 1.8-1.9 3.1 0 1 .4 1.9 1.2 2.6.8.7 2.2 1.3 4.2 1.7l7.8 1.6c4.2.9 7.3 2.3 9.4 4.2 2.1 1.9 3.1 4.4 3.1 7.5 0 2.8-.8 5.3-2.5 7.5-1.7 2.1-3.9 3.8-6.8 5-2.9 1.2-6.2 1.8-10 1.8-5.7 0-10.3-1.2-13.7-3.6-3.4-2.4-5.4-5.7-6-9.8l11.8-.6c.4 1.7 1.2 3.1 2.6 4 1.4.9 3.1 1.4 5.3 1.4 2.1 0 3.8-.4 5.1-1.2 1.3-.8 1.9-1.9 2-3.2 0-1.1-.5-2-1.4-2.7-.9-.7-2.3-1.2-4.2-1.6l-7.5-1.5c-4.2-.8-7.4-2.3-9.4-4.4-2.1-2.1-3.1-4.7-3.1-8 0-2.8.8-5.2 2.3-7.2 1.5-2 3.6-3.6 6.4-4.6 2.7-1.1 6-1.6 9.7-1.6 5.5 0 9.8 1.2 12.9 3.5 3.2 2 5.1 5.2 5.6 9.2zM423.5 170.7V113h12.2v23.8h24.7V113h12.2v57.6h-12.2v-23.8h-24.7v23.8h-12.2zM488.4 121.9c-1.8 0-3.3-.6-4.6-1.8-1.3-1.2-1.9-2.6-1.9-4.3 0-1.7.6-3.1 1.9-4.3 1.3-1.2 2.8-1.8 4.6-1.8 1.8 0 3.3.6 4.6 1.8 1.3 1.2 1.9 2.6 1.9 4.3 0 1.7-.6 3.1-1.9 4.3-1.3 1.2-2.8 1.8-4.6 1.8zm-6 48.8v-43.2h12v43.2h-12zM523.5 187.8c-3.9 0-7.2-.5-10-1.6s-5-2.5-6.6-4.3c-1.6-1.8-2.7-3.9-3.2-6.1l11.1-1.5c.3.9.9 1.7 1.6 2.4.7.8 1.7 1.4 2.9 1.8 1.2.5 2.7.7 4.4.7 2.6 0 4.8-.6 6.5-1.9 1.7-1.3 2.5-3.4 2.5-6.3v-8h-.5c-.5 1.2-1.3 2.3-2.4 3.4-1.1 1.1-2.4 1.9-4.1 2.6-1.7.7-3.6 1-5.9 1-3.2 0-6.2-.8-8.9-2.3-2.7-1.5-4.8-3.8-6.3-7-1.6-3.1-2.4-7.1-2.4-11.9 0-4.9.8-9 2.4-12.3 1.6-3.3 3.7-5.7 6.4-7.4 2.7-1.6 5.6-2.4 8.7-2.4 2.4 0 4.4.4 6.1 1.2 1.6.8 3 1.8 4 3s1.8 2.4 2.3 3.6h.5v-7.3h11.9v43.7c0 3.7-.9 6.8-2.7 9.2-1.8 2.5-4.3 4.3-7.5 5.6-3.1 1.5-6.7 2.1-10.8 2.1zm.2-26.7c1.9 0 3.6-.5 4.9-1.4 1.3-1 2.4-2.4 3.1-4.2.7-1.8 1.1-4 1.1-6.5s-.4-4.7-1.1-6.6c-.7-1.9-1.7-3.3-3.1-4.3-1.4-1-3-1.5-4.9-1.5-2 0-3.6.5-5 1.6s-2.4 2.5-3.1 4.4c-.7 1.9-1 4-1 6.5s.4 4.6 1.1 6.5c.7 1.8 1.7 3.2 3.1 4.2 1.3.8 2.9 1.3 4.9 1.3zM566.2 145.7v25h-12V113h11.7v22h.5c1-2.6 2.6-4.6 4.7-6 2.2-1.5 4.9-2.2 8.2-2.2 3 0 5.6.7 7.9 2 2.2 1.3 4 3.2 5.2 5.6 1.2 2.4 1.9 5.3 1.8 8.7v27.5h-12v-25.4c0-2.7-.7-4.7-2-6.2-1.4-1.5-3.3-2.2-5.7-2.2-1.6 0-3.1.3-4.3 1-1.2.7-2.2 1.7-2.9 3-.8 1.4-1.1 3-1.1 4.9zM612.2 170.7l-11.8-43.2h12.1l6.7 29h.4l7-29h11.9l7.1 28.9h.4l6.6-28.9h12.1L653 170.7h-12.7l-7.4-27.2h-.5l-7.4 27.2h-12.8zM683.4 171.5c-2.8 0-5.2-.5-7.4-1.5s-3.9-2.4-5.1-4.3c-1.2-1.9-1.9-4.3-1.9-7.1 0-2.4.4-4.4 1.3-6.1.9-1.6 2.1-2.9 3.6-3.9s3.3-1.7 5.2-2.3c1.9-.5 4-.9 6.1-1.1 2.5-.3 4.5-.5 6.1-.7 1.5-.2 2.7-.6 3.3-1.1.7-.5 1-1.2 1-2.1v-.2c0-1.8-.6-3.2-1.7-4.1-1.1-1-2.7-1.5-4.7-1.5-2.2 0-3.9.5-5.2 1.4-1.3.9-2.1 2.1-2.5 3.6l-11.1-.9c.6-2.6 1.7-4.9 3.3-6.8 1.7-1.9 3.8-3.4 6.4-4.4 2.6-1 5.7-1.6 9.1-1.6 2.4 0 4.7.3 6.9.8 2.2.6 4.2 1.4 5.9 2.6 1.7 1.2 3.1 2.7 4.1 4.5 1 1.8 1.5 4.1 1.5 6.6v29.2h-11.4v-6h-.2c-.7 1.4-1.6 2.5-2.8 3.6-1.2 1-2.6 1.8-4.2 2.4-1.6.7-3.5 1-5.6 1zm3.4-8.3c1.8 0 3.3-.4 4.7-1.1s2.4-1.7 3.2-2.9c.8-1.2 1.2-2.6 1.2-4.1v-4.6c-.4.2-.9.5-1.5.7-.6.2-1.4.4-2.2.5-.8.2-1.6.3-2.4.4-.8.1-1.5.2-2.2.3-1.4.2-2.6.5-3.7 1-1.1.4-1.9 1.1-2.4 1.8-.6.8-.9 1.7-.9 2.8 0 1.6.6 2.9 1.8 3.7 1 1.1 2.6 1.5 4.4 1.5zM722.9 186.9c-1.5 0-2.9-.1-4.3-.4-1.3-.2-2.4-.5-3.3-.9l2.7-9c1.4.4 2.7.7 3.8.7 1.1 0 2.1-.2 3-.8.8-.6 1.5-1.5 2-2.9l.7-1.8-15.5-44.4h12.6l9 31.8h.5l9-31.8h12.7l-16.8 48c-.8 2.3-1.9 4.4-3.3 6.1-1.4 1.7-3.1 3.1-5.2 4s-4.7 1.4-7.6 1.4zM474.4 228.3H462c-.2-1.6-.7-3-1.4-4.3-.7-1.2-1.6-2.3-2.7-3.2-1.1-.9-2.3-1.6-3.8-2-1.4-.5-3-.7-4.6-.7-3 0-5.6.7-7.8 2.2-2.2 1.5-3.9 3.6-5.2 6.4-1.2 2.8-1.8 6.2-1.8 10.2 0 4.1.6 7.6 1.8 10.4 1.2 2.8 3 4.9 5.2 6.3 2.2 1.4 4.8 2.1 7.7 2.1 1.6 0 3.1-.2 4.5-.6 1.4-.4 2.6-1.1 3.7-1.9 1.1-.8 2-1.9 2.7-3.1.7-1.2 1.2-2.6 1.5-4.1l12.3.1c-.3 2.6-1.1 5.2-2.4 7.6-1.3 2.4-3 4.6-5.1 6.6-2.1 1.9-4.7 3.4-7.6 4.6-2.9 1.1-6.3 1.7-9.9 1.7-5.1 0-9.7-1.2-13.8-3.5-4-2.3-7.2-5.7-9.6-10.1-2.3-4.4-3.5-9.7-3.5-16 0-6.3 1.2-11.6 3.5-16 2.4-4.4 5.6-7.8 9.6-10.1 4.1-2.3 8.6-3.5 13.7-3.5 3.3 0 6.4.5 9.3 1.4 2.9.9 5.4 2.3 7.6 4.1 2.2 1.8 4 4 5.4 6.6 1.8 2.5 2.7 5.5 3.1 8.8zM502.4 266.6c-4.4 0-8.1-.9-11.3-2.8-3.2-1.9-5.6-4.5-7.4-7.8-1.7-3.3-2.6-7.2-2.6-11.7 0-4.5.9-8.4 2.6-11.7 1.7-3.3 4.2-6 7.4-7.8 3.2-1.9 7-2.8 11.3-2.8 4.4 0 8.1.9 11.3 2.8 3.2 1.9 5.6 4.5 7.4 7.8 1.7 3.3 2.6 7.3 2.6 11.7 0 4.4-.9 8.3-2.6 11.7-1.7 3.3-4.2 6-7.4 7.8-3.1 1.9-6.9 2.8-11.3 2.8zm.1-9.2c2 0 3.6-.6 5-1.7s2.3-2.7 3-4.7c.7-2 1-4.2 1-6.7s-.3-4.8-1-6.7c-.7-2-1.7-3.5-3-4.7s-3-1.7-5-1.7-3.7.6-5.1 1.7-2.4 2.7-3.1 4.7c-.7 2-1 4.2-1 6.7s.3 4.8 1 6.7c.7 2 1.7 3.5 3.1 4.7s3.1 1.7 5.1 1.7zM547.5 266.5c-3.3 0-6.3-.8-8.9-2.5-2.7-1.7-4.8-4.2-6.3-7.5s-2.3-7.4-2.3-12.2c0-5 .8-9.1 2.4-12.4 1.6-3.3 3.7-5.8 6.4-7.4 2.7-1.6 5.6-2.5 8.7-2.5 2.4 0 4.4.4 6.1 1.2 1.6.8 2.9 1.8 3.9 3s1.8 2.4 2.3 3.6h.4v-21.7h12v57.6h-11.8v-6.9h-.5c-.6 1.2-1.4 2.4-2.4 3.6-1 1.2-2.3 2.1-4 2.9-1.7.8-3.7 1.2-6 1.2zm3.8-9.5c1.9 0 3.6-.5 4.9-1.6 1.3-1.1 2.4-2.5 3.1-4.5.7-1.9 1.1-4.2 1.1-6.7s-.4-4.8-1.1-6.7c-.7-1.9-1.7-3.4-3.1-4.4-1.4-1-3-1.5-4.9-1.5-2 0-3.6.5-5 1.6s-2.4 2.6-3.1 4.4c-.7 1.9-1 4.1-1 6.6s.4 4.7 1.1 6.7c.7 1.9 1.7 3.4 3.1 4.5 1.2 1 2.9 1.6 4.9 1.6zM601.6 266.6c-4.4 0-8.3-.9-11.5-2.7-3.2-1.8-5.7-4.4-7.4-7.7-1.7-3.3-2.6-7.3-2.6-11.8 0-4.4.9-8.4 2.6-11.7 1.7-3.4 4.2-6 7.3-7.9 3.1-1.9 6.8-2.8 11.1-2.8 2.9 0 5.5.5 8 1.4 2.5.9 4.6 2.3 6.5 4.1 1.8 1.8 3.3 4.1 4.3 6.9 1 2.7 1.5 6 1.5 9.6v3.3h-36.5v-7.4h25.2c0-1.7-.4-3.3-1.1-4.6-.8-1.3-1.8-2.4-3.1-3.1-1.3-.8-2.9-1.1-4.6-1.1-1.8 0-3.4.4-4.8 1.3-1.4.8-2.5 2-3.3 3.3-.8 1.4-1.2 3-1.2 4.7v7.1c0 2.1.4 4 1.2 5.5.8 1.6 1.9 2.8 3.4 3.6 1.5.8 3.2 1.3 5.2 1.3 1.3 0 2.6-.2 3.7-.6s2.1-.9 2.8-1.7c.8-.8 1.4-1.7 1.8-2.8l11.1.7c-.6 2.7-1.7 5-3.4 7s-4 3.5-6.7 4.6c-2.8 1-5.9 1.5-9.5 1.5zM474.1 332.1c0 6.1-1.1 11.3-3.3 15.8s-5.2 7.8-9 10.2c-3.8 2.4-8.2 3.6-13.1 3.6s-9.3-1.2-13.1-3.6c-3.8-2.4-6.8-5.8-9-10.2-2.2-4.4-3.3-9.7-3.3-15.8 0-6.1 1.1-11.3 3.3-15.8 2.2-4.4 5.2-7.8 9-10.2 3.8-2.4 8.2-3.6 13.1-3.6s9.3 1.2 13.1 3.6c3.8 2.4 6.8 5.8 9 10.2s3.3 9.7 3.3 15.8zm-6.7 0c0-5-.8-9.2-2.5-12.6-1.7-3.4-3.9-6-6.7-7.8-2.8-1.8-6-2.6-9.5-2.6s-6.6.9-9.5 2.6c-2.8 1.8-5.1 4.4-6.7 7.8-1.7 3.4-2.5 7.6-2.5 12.6s.8 9.2 2.5 12.6c1.7 3.4 3.9 6 6.7 7.8 2.8 1.8 6 2.6 9.5 2.6s6.6-.9 9.5-2.6c2.8-1.8 5.1-4.4 6.7-7.8 1.6-3.4 2.5-7.6 2.5-12.6zM491.6 334.9v26H485v-43.2h6.4v6.8h.6c1-2.2 2.6-4 4.6-5.3 2.1-1.3 4.7-2 8-2 2.9 0 5.5.6 7.7 1.8 2.2 1.2 3.9 3 5.1 5.4 1.2 2.4 1.8 5.5 1.8 9.1V361h-6.6v-27c0-3.4-.9-6-2.6-8-1.8-1.9-4.2-2.9-7.3-2.9-2.1 0-4 .5-5.7 1.4-1.7.9-3 2.3-3.9 4-1.1 1.8-1.5 3.9-1.5 6.4zM537.9 303.3v57.6h-6.6v-57.6h6.6zM553.5 310.5c-1.3 0-2.4-.4-3.3-1.3-.9-.9-1.4-1.9-1.4-3.2s.5-2.3 1.4-3.2c.9-.9 2-1.3 3.3-1.3 1.3 0 2.4.4 3.3 1.3.9.9 1.4 1.9 1.4 3.2s-.5 2.3-1.4 3.2c-.9.8-2 1.3-3.3 1.3zm-3.4 50.4v-43.2h6.6v43.2h-6.6zM575.6 334.9v26H569v-43.2h6.4v6.8h.6c1-2.2 2.6-4 4.6-5.3 2.1-1.3 4.7-2 8-2 2.9 0 5.5.6 7.7 1.8 2.2 1.2 3.9 3 5.1 5.4 1.2 2.4 1.8 5.5 1.8 9.1V361h-6.6v-27c0-3.4-.9-6-2.6-8-1.8-1.9-4.2-2.9-7.3-2.9-2.1 0-4 .5-5.7 1.4-1.7.9-3 2.3-3.9 4-1.1 1.8-1.5 3.9-1.5 6.4zM633.4 361.8c-4.2 0-7.8-.9-10.8-2.8-3-1.8-5.3-4.4-7-7.8-1.6-3.3-2.4-7.2-2.4-11.6 0-4.4.8-8.3 2.4-11.7 1.6-3.4 3.9-6 6.8-7.9 2.9-1.9 6.3-2.9 10.2-2.9 2.3 0 4.5.4 6.7 1.1 2.2.8 4.2 2 6 3.6 1.8 1.7 3.2 3.9 4.3 6.7 1.1 2.8 1.6 6.2 1.6 10.2v2.8H618v-5.7h26.6c0-2.4-.5-4.6-1.4-6.5-1-1.9-2.3-3.4-4.1-4.5-1.8-1.1-3.9-1.7-6.3-1.7-2.6 0-4.9.7-6.9 2-1.9 1.3-3.4 3-4.4 5.1-1 2.1-1.5 4.3-1.5 6.7v3.8c0 3.3.6 6 1.7 8.3 1.1 2.3 2.7 4 4.7 5.2 2 1.2 4.4 1.8 7.1 1.8 1.7 0 3.3-.2 4.7-.7s2.6-1.2 3.7-2.3c1-1 1.8-2.3 2.4-3.8l6.4 1.8c-.7 2.2-1.8 4.1-3.4 5.7-1.6 1.6-3.6 2.9-5.9 3.8s-5 1.3-8 1.3z"/></svg>