<svg xmlns="http://www.w3.org/2000/svg" xml:space="preserve" viewBox="0 0 100 100"><path d="M98.2 87.5H84.5c-1 0-1.8-.9-1.8-1.9V60c0-1.1.8-1.9 1.8-1.9h13.6c1 0 1.8.9 1.8 1.9v25.6c.1 1-.7 1.9-1.7 1.9zM84.5 59.7c-.1 0-.3.1-.3.3v25.6c0 .1.1.3.3.3h13.6c.1 0 .3-.1.3-.3V60c0-.1-.1-.3-.3-.3H84.5zM33.4 85.9h27.5v1.6H33.4z"/><path d="M4.7 76c-1.7 0-3.1-1.4-3.1-3.2V17.2C1.6 15.5 3 14 4.7 14h84.9c1.7 0 3.1 1.4 3.1 3.2v38.7h1.6V17.2c0-2.6-2.1-4.7-4.7-4.7H4.7c-2.6 0-4.7 2.1-4.7 4.7v55.6c0 2.6 2.1 4.7 4.7 4.7h75.6V76H4.7z"/><circle cx="91.3" cy="83.5" r="1"/></svg>
