<?xml version="1.0" encoding="utf-8"?>
<!-- Generator: Adobe Illustrator 26.3.1, SVG Export Plug-In . SVG Version: 6.00 Build 0)  -->
<svg version="1.1" id="Layer_2" xmlns="http://www.w3.org/2000/svg" xmlns:xlink="http://www.w3.org/1999/xlink" x="0px" y="0px"
	 viewBox="0 0 492 492" style="enable-background:new 0 0 492 492;" xml:space="preserve">
<style type="text/css">
	.st0{fill:#D5D5D5;}
	.st1{fill:#FFFFFF;}
	.st2{fill:#B0DAF0;}
	.st3{fill:#0171D5;}
	.st4{fill:none;}
	.st5{fill:#EAF4FE;}
	.st6{fill:#0A1E46;}
	.st7{fill:#004EE4;}
</style>
<rect x="317.1" y="304.4" class="st0" width="6.2" height="29.5"/>
<rect x="144.5" y="304.6" class="st0" width="6.2" height="29.5"/>
<path class="st1" d="M334.6,205.3h27.3v-24.9H114.9v58.7h21.5c4.5,0,8.1,3.6,8.1,8.1v55.2h178.8v-26h-75.5c-0.8,0-1.5-0.7-1.5-1.5
	c0-0.8,0.7-1.5,1.5-1.5h75.5v-23.2h-75.5c-0.8,0-1.5-0.7-1.5-1.5s0.7-1.5,1.5-1.5h75.5v-25.2h-75.5c-0.8,0-1.5-0.7-1.5-1.5
	c0-0.8,0.7-1.5,1.5-1.5h75.5v-2.6C323.3,210.4,328.4,205.3,334.6,205.3z"/>
<path class="st2" d="M137.4,206.8v84.3h92.9v-84.3H137.4z M181.8,268.4l0.1-0.3h-31.3l25.7-46l15.6,28l5.7-10.1l15.9,28.4H181.8z
	 M206.8,229.2c-4.2,0-7.7-3.4-7.7-7.7c0-4.2,3.4-7.7,7.7-7.7c4.2,0,7.6,3.4,7.6,7.7C214.4,225.8,211,229.2,206.8,229.2z"/>
<path class="st1" d="M263.9,336.3h-50.8c0.1,1.2,0.2,2.4,0.2,3.7c0.1,8.2-2,19.9-10.7,33.9h71.8c-6.2-9.9-10.8-21.5-10.7-33.9
	C263.7,338.7,263.8,337.5,263.9,336.3z"/>
<path class="st3" d="M361.8,164.6c0-6.8-5.5-12.3-12.3-12.3H127.2c-6.8,0-12.3,5.5-12.3,12.3v12.9h246.9V164.6z M133,171.5
	c-3,0-5.4-2.4-5.4-5.4s2.4-5.4,5.4-5.4c3,0,5.4,2.4,5.4,5.4S135.9,171.5,133,171.5z M151.3,171.5c-3,0-5.4-2.4-5.4-5.4
	s2.4-5.4,5.4-5.4c3,0,5.4,2.4,5.4,5.4S154.3,171.5,151.3,171.5z M168.8,171.5c-3,0-5.4-2.4-5.4-5.4s2.4-5.4,5.4-5.4
	c3,0,5.4,2.4,5.4,5.4S171.8,171.5,168.8,171.5z"/>
<path class="st3" d="M136.4,242.1h-21.5H112H67.8c-2.8,0-5.2,2.3-5.2,5.2V369c0,2.3,1.5,4.2,3.5,4.9c0.5,0.2,1.1,0.3,1.6,0.3h68.6
	c0.6,0,1.1-0.1,1.6-0.3c2-0.7,3.5-2.6,3.5-4.9v-32.7v-2.9v-27v-3.9v-55.2C141.6,244.4,139.2,242.1,136.4,242.1z M135.5,302.5v3.9v27
	v2.9v24.9c0,1.2-0.9,2.1-2.1,2.1H71c-1.2,0-2.1-0.9-2.1-2.1V255.5c0-1.2,0.9-2.1,2.1-2.1H112h2.9h18.5c1.2,0,2.1,0.9,2.1,2.1V302.5z
	"/>
<path class="st1" d="M112,256.4H71.9v104h60.7v-24.1v-2.9v-27v-3.9v-46.1h-17.6H112z M124,330c0,0.8-0.7,1.5-1.5,1.5h-1.9h-4.6H81.2
	c-0.8,0-1.5-0.7-1.5-1.5s0.7-1.5,1.5-1.5h32.7h3.5h5.1C123.4,328.5,124,329.2,124,330z M119.2,316.1c0,0.8-0.7,1.5-1.5,1.5h-2.8H112
	H86.4c-0.8,0-1.5-0.7-1.5-1.5c0-0.8,0.7-1.5,1.5-1.5H112h2.9h2.8C118.5,314.6,119.2,315.3,119.2,316.1z"/>
<polygon class="st4" points="144.5,333.3 208.7,333.3 212.7,333.3 264.3,333.3 268.2,333.3 323.3,333.3 323.3,306.4 144.5,306.4 "/>
<path class="st3" d="M467.7,216.6c0-4.6-3.7-8.4-8.4-8.4h-94.6h-2.9h-27.3c-4.6,0-8.4,3.8-8.4,8.4v2.6v2.9v25.2v2.9v23.2v2.9v26v3.9
	v27v2.9v29.2c0,4.6,3.7,8.4,8.4,8.4h124.7c4.6,0,8.4-3.8,8.4-8.4V216.6z M385.2,215.4h23.6c0.8,0,1.5,0.7,1.5,1.5
	c0,0.8-0.7,1.5-1.5,1.5h-23.6c-0.8,0-1.5-0.7-1.5-1.5C383.7,216,384.4,215.4,385.2,215.4z M457.3,357.1c0,1.3-1.1,2.4-2.4,2.4H339.1
	c-1.3,0-2.4-1.1-2.4-2.4v-20.8v-2.9v-27v-3.9v-26v-2.9v-23.2v-2.9v-21.8c0-1.3,1.1-2.4,2.4-2.4h22.8h2.9h90.1c1.3,0,2.4,1.1,2.4,2.4
	V357.1z"/>
<path class="st1" d="M361.8,226h-22.3v21.3v2.9v23.2v2.9v26v3.9v27v2.9v20.3h114.8V226h-89.6H361.8z M437.1,339.1H356
	c-0.8,0-1.5-0.7-1.5-1.5c0-0.8,0.7-1.5,1.5-1.5h81.1c0.8,0,1.5,0.7,1.5,1.5C438.6,338.4,437.9,339.1,437.1,339.1z M438.6,322.3
	c0,0.8-0.7,1.5-1.5,1.5h-72.6h-3H356c-0.8,0-1.5-0.7-1.5-1.5c0-0.8,0.7-1.5,1.5-1.5h5.8h2.9h72.3
	C437.9,320.8,438.6,321.5,438.6,322.3z"/>
<path class="st4" d="M201.8,367.5c-2,0.3-4,0.6-6,1c-8.9,1.5-17.9,3-26.6,5.4H198C199.4,371.7,200.6,369.6,201.8,367.5z"/>
<path class="st4" d="M459.3,208.3h-8c-0.4,0.7-0.8,1.5-1.3,2.2c-12.8,21.9-28.5,43-50.3,56c-4.9,2.9-10.5,6-11.8,11.6
	c-1.3,5.6,2.4,11.1,6.3,15.3c17.7,19.5,41.5,32.2,65.1,43.7c2.8,1.4,5.6,2.8,8.3,4.4V216.6C467.7,212,463.9,208.3,459.3,208.3z"/>
<path class="st4" d="M274.4,373.9c-2.3-3.7-4.3-7.6-6-11.6c-3.2-0.1-6.4-0.1-9.6-0.1c-8,0.1-16,0.5-24,1.2c-9.4,0.8-18.9,2-28.2,3.5
	c-1.1,2.3-2.4,4.7-3.9,7.1H274.4z"/>
<path class="st5" d="M466.9,373.9h14.6c1.9-9.5,0-19.9-6.6-26.9c-1.3-1.4-2.7-2.5-4.2-3.6v22.1C470.6,368.8,469.2,371.8,466.9,373.9
	z"/>
<path class="st5" d="M65.6,376.8H42.9c-0.8,0-1.5-0.7-1.5-1.5c0-0.8,0.7-1.5,1.5-1.5h18.4c-1-1.4-1.6-3-1.6-4.9V247.3
	c0-4.5,3.6-8.1,8.1-8.1H112v-74.6c0-8.4,6.8-15.3,15.2-15.3h222.3c8.4,0,15.2,6.8,15.2,15.3v40.7H453c2.7-5,5.2-10.3,6.7-15.8
	c3.3-12.3,1.8-25.4,1-37.8c-0.7-9.7-2.5-19.5-5.5-28.7c-4.1-12.8-10.8-25-21.5-33.4c-12.5-9.8-34-16.1-48.9-8.9
	c-5.8,2.8-10.8,6.8-16.2,10.3c-20.2,13-44.3,18.9-67.9,21.8c-24.7,3-52.2,4.8-76.5-1.1c-11.5-2.8-22.4-7.6-33.3-12.3
	c-19.9-8.5-40.1-16.7-61.2-21.4c-15.7-3.5-31.9-5.1-47.8-3.2c-12.3,1.4-24.4,5-35.2,11c-7.8,4.3-13.6,10.9-19.4,17.6
	C15.4,117,2.7,134.7,0.3,153.1c-2.6,19,13.6,21.9,28.9,18.4c11.5-2.6,23-4.9,34.6-6.6c9.7-1.4,23.4-4.5,32.5-0.2
	c3.9,1.9,6.9,5.3,9.2,8.9c2.1,3.3,3.9,7.1,3.6,11.1c-0.5,6.5-6.3,11.3-12.2,13.9c-12.4,5.4-26.4,5.1-38.7,11.2
	c-7,3.4-13.5,7.6-19.3,12.7c-17.2,14.9-27.9,35.8-33.9,57.5c-2,7.3-3.2,14.9-3.5,22.5c-0.8,24.8,9.1,48.3,24.3,67.5
	c14.3,18.1,30.8,33.3,54.3,36.7c10.7,1.5,21.8,2.2,32-1.2c12.1-3.9,19.8-12.8,29.8-19.8c5.6-3.9,11.6-6.8,17.8-9.1h-21.4H65.6z"/>
<path class="st5" d="M201.8,367.5c5-9.3,7.6-18.5,7.6-27.2c0-1.4-0.1-2.8-0.2-4h-64.7V369c0,1.8-0.6,3.5-1.6,4.9h26.3
	c8.7-2.4,17.8-3.9,26.6-5.4C197.8,368.2,199.8,367.8,201.8,367.5z"/>
<path class="st5" d="M336.9,376.8c3.3,1.5,6.5,3.1,9.7,4.8c11.8,6.5,22.6,14.7,34.1,21.6c11.7,7,25.6,13.3,39.4,14.6
	c13.4,1.3,26.8-4.5,37.6-12.1c9.5-6.7,18.1-15.3,22.2-26.1c0.3-0.9,0.6-1.9,0.9-2.8h-21.4H336.9z"/>
<path class="st5" d="M323.3,336.3h-55.5c-0.1,1.3-0.2,2.6-0.2,4c0,7.1,1.7,14.5,5.1,22.1c18,0.9,36,3.9,52.9,9.9
	c-1.4-1.9-2.3-4.2-2.3-6.8V336.3z"/>
<g>
	<path class="st6" d="M385.2,218.3h23.6c0.8,0,1.5-0.7,1.5-1.5s-0.7-1.5-1.5-1.5h-23.6c-0.8,0-1.5,0.7-1.5,1.5
		S384.4,218.3,385.2,218.3z"/>
	<path class="st6" d="M454.9,223.1h-90.1h-2.9h-22.8c-1.3,0-2.4,1.1-2.4,2.4v21.8v2.9v23.2v2.9v26v3.9v27v2.9v20.8
		c0,1.3,1.1,2.4,2.4,2.4h115.8c1.3,0,2.4-1.1,2.4-2.4V225.6C457.3,224.2,456.2,223.1,454.9,223.1z M454.4,356.6H339.6v-20.3v-2.9
		v-27v-3.9v-26v-2.9v-23.2v-2.9V226h22.3h2.9h89.6V356.6z"/>
	<path class="st6" d="M437.1,336.2H356c-0.8,0-1.5,0.7-1.5,1.5s0.7,1.5,1.5,1.5h81.1c0.8,0,1.5-0.7,1.5-1.5S437.9,336.2,437.1,336.2
		z"/>
	<path class="st6" d="M361.8,320.8H356c-0.8,0-1.5,0.7-1.5,1.5c0,0.8,0.7,1.5,1.5,1.5h5.5h3h72.6c0.8,0,1.5-0.7,1.5-1.5
		c0-0.8-0.7-1.5-1.5-1.5h-72.3H361.8z"/>
	<ellipse class="st6" cx="133" cy="166.1" rx="5.4" ry="5.4"/>
	<ellipse class="st6" cx="151.3" cy="166.1" rx="5.4" ry="5.4"/>
	<ellipse class="st6" cx="168.8" cy="166.1" rx="5.4" ry="5.4"/>
	<path class="st6" d="M490.5,373.9h-9.1h-14.6c2.3-2.1,3.7-5,3.7-8.4v-22.1V216.6c0-6.2-5.1-11.3-11.3-11.3H453h-88.2v-40.7
		c0-8.4-6.8-15.3-15.2-15.3H127.2c-8.4,0-15.2,6.8-15.2,15.3v74.6H67.8c-4.5,0-8.1,3.6-8.1,8.1V369c0,1.8,0.6,3.5,1.6,4.9H42.9
		c-0.8,0-1.5,0.7-1.5,1.5s0.7,1.5,1.5,1.5h22.8h72.9h21.4H196h4.8h75.6h4.7h20c0.8,0,1.5-0.7,1.5-1.5s-0.7-1.5-1.5-1.5h-22
		c-2.5-3.8-4.6-7.7-6.3-11.5c-3.4-7.5-5.1-15-5.1-22.1c0-1.4,0.1-2.8,0.2-4h55.5v29.2c0,2.5,0.9,4.9,2.3,6.8
		c0.4,0.6,0.9,1.1,1.4,1.6h-15.3c-0.8,0-1.5,0.7-1.5,1.5s0.7,1.5,1.5,1.5h22.8h2.3h122.5h21.4h9.8c0.8,0,1.5-0.7,1.5-1.5
		S491.3,373.9,490.5,373.9z M114.9,164.6c0-6.8,5.5-12.3,12.3-12.3h222.3c6.8,0,12.3,5.5,12.3,12.3v12.9H114.9V164.6z M141.6,302.5
		v3.9v27v2.9V369c0,2.3-1.5,4.2-3.5,4.9c-0.5,0.2-1.1,0.3-1.6,0.3H67.8c-0.6,0-1.1-0.1-1.6-0.3c-2-0.7-3.5-2.6-3.5-4.9V247.3
		c0-2.8,2.3-5.2,5.2-5.2H112h2.9h21.5c2.8,0,5.2,2.3,5.2,5.2V302.5z M198,373.9h-28.8h-26.3c1-1.4,1.6-3,1.6-4.9v-32.7h64.7
		c0.1,1.3,0.2,2.6,0.2,4c0,8.7-2.5,17.9-7.6,27.2C200.6,369.6,199.4,371.7,198,373.9z M268.4,362.2c1.7,4.1,3.8,8,6,11.6h-71.8
		c1.5-2.4,2.8-4.8,3.9-7.1c5.4-10.8,6.8-20,6.7-26.8c0-1.3-0.1-2.5-0.2-3.7h50.8c-0.1,1.2-0.2,2.4-0.2,3.7
		C263.6,347.8,265.5,355.3,268.4,362.2z M323.3,333.3h-55.1h-4h-51.5h-4h-64.3v-27h178.8V333.3z M323.3,216.6v2.6h-75.5
		c-0.8,0-1.5,0.7-1.5,1.5s0.7,1.5,1.5,1.5h75.5v25.2h-75.5c-0.8,0-1.5,0.7-1.5,1.5c0,0.8,0.7,1.5,1.5,1.5h75.5v23.2h-75.5
		c-0.8,0-1.5,0.7-1.5,1.5c0,0.8,0.7,1.5,1.5,1.5h75.5v26H144.5v-55.2c0-4.5-3.6-8.1-8.1-8.1h-21.5v-58.7h246.9v24.9h-27.3
		C328.4,205.3,323.3,210.4,323.3,216.6z M459.3,373.9H334.6c-4.6,0-8.4-3.8-8.4-8.4v-29.2v-2.9v-27v-3.9v-26v-2.9v-23.2v-2.9v-25.2
		v-2.9v-2.6c0-4.6,3.7-8.4,8.4-8.4h27.3h2.9h86.6h8c4.6,0,8.4,3.8,8.4,8.4v124.8v24.1C467.7,370.1,463.9,373.9,459.3,373.9z"/>
	<path class="st6" d="M30.9,373.9H13.3c-0.8,0-1.5,0.7-1.5,1.5s0.7,1.5,1.5,1.5h17.6c0.8,0,1.5-0.7,1.5-1.5S31.7,373.9,30.9,373.9z"
		/>
	<path class="st6" d="M112,314.6H86.4c-0.8,0-1.5,0.7-1.5,1.5s0.7,1.5,1.5,1.5H112h2.9h2.8c0.8,0,1.5-0.7,1.5-1.5s-0.7-1.5-1.5-1.5
		h-2.8H112z"/>
	<path class="st6" d="M113.9,328.5H81.2c-0.8,0-1.5,0.7-1.5,1.5c0,0.8,0.7,1.5,1.5,1.5h34.9h4.6h1.9c0.8,0,1.5-0.7,1.5-1.5
		c0-0.8-0.7-1.5-1.5-1.5h-5.1H113.9z"/>
	<path class="st6" d="M133.4,253.4h-18.5H112H71c-1.2,0-2.1,0.9-2.1,2.1v105.6c0,1.2,0.9,2.1,2.1,2.1h62.3c1.2,0,2.1-0.9,2.1-2.1
		v-24.9v-2.9v-27v-3.9v-46.9C135.5,254.4,134.5,253.4,133.4,253.4z M132.5,302.5v3.9v27v2.9v24.1H71.9v-104H112h2.9h17.6V302.5z"/>
</g>
<path class="st2" d="M80.3,263.1v39.4h43.5v-39.4H80.3z M101.1,291.9l0.1-0.1H86.5l12-21.5l7.3,13.1l2.6-4.7l7.4,13.3H101.1z
	 M112.8,273.5c-2,0-3.6-1.6-3.6-3.6c0-2,1.6-3.6,3.6-3.6s3.6,1.6,3.6,3.6C116.4,271.9,114.8,273.5,112.8,273.5z"/>
<path class="st2" d="M361.3,240v64.6h71.2V240H361.3z M395.4,287.2l0.1-0.2h-24l19.7-35.2l12,21.4l4.3-7.8l12.2,21.8H395.4z
	 M414.5,257.1c-3.2,0-5.9-2.6-5.9-5.9c0-3.2,2.6-5.9,5.9-5.9s5.9,2.6,5.9,5.9C420.4,254.5,417.8,257.1,414.5,257.1z"/>
<path class="st7" d="M138.1,109.9L138.1,109.9c-0.6,0-1.2-0.4-1.4-1c-1.9-5.7-6.4-10.3-12-12.4c-0.6-0.2-1-0.8-1-1.4s0.4-1.2,1-1.4
	c5.6-2.1,10.1-6.7,12-12.4c0.2-0.6,0.8-1,1.4-1s1.2,0.4,1.4,1c1.9,5.7,6.4,10.3,12,12.4c0.6,0.2,1,0.8,1,1.4s-0.4,1.2-1,1.4
	c-5.6,2.1-10.1,6.7-12,12.4C139.3,109.5,138.7,109.9,138.1,109.9z M128.8,95.2c4,2.2,7.2,5.5,9.3,9.5c2.1-4,5.4-7.4,9.3-9.5
	c-4-2.2-7.2-5.5-9.3-9.5C136,89.7,132.7,93,128.8,95.2z"/>
<path class="st7" d="M82,212.9c-0.4,0-0.8-0.3-1-0.7c-1.3-4-4.5-7.2-8.4-8.7c-0.4-0.1-0.7-0.5-0.7-1s0.3-0.8,0.7-1
	c3.9-1.5,7.1-4.7,8.4-8.7c0.1-0.4,0.5-0.7,1-0.7c0.4,0,0.8,0.3,1,0.7c1.3,4,4.5,7.2,8.4,8.7c0.4,0.1,0.7,0.5,0.7,1s-0.3,0.8-0.7,1
	c-3.9,1.5-7.1,4.7-8.4,8.7C82.8,212.6,82.5,212.9,82,212.9z M75.5,202.6c2.8,1.5,5.1,3.9,6.6,6.7c1.5-2.8,3.8-5.2,6.6-6.7
	c-2.8-1.5-5.1-3.9-6.6-6.7C80.5,198.7,78.2,201,75.5,202.6z"/>
<path class="st7" d="M395.6,159.7c-0.4,0-0.8-0.3-1-0.7c-1.3-4-4.5-7.2-8.4-8.7c-0.4-0.1-0.7-0.5-0.7-1s0.3-0.8,0.7-1
	c3.9-1.5,7.1-4.7,8.4-8.7c0.1-0.4,0.5-0.7,1-0.7c0.4,0,0.8,0.3,1,0.7c1.3,4,4.5,7.2,8.4,8.7c0.4,0.1,0.7,0.5,0.7,1s-0.3,0.8-0.7,1
	c-3.9,1.5-7.1,4.7-8.4,8.7C396.4,159.4,396.1,159.7,395.6,159.7z M389.1,149.4c2.8,1.5,5.1,3.9,6.6,6.7c1.5-2.8,3.8-5.2,6.6-6.7
	c-2.8-1.5-5.1-3.9-6.6-6.7C394.1,145.5,391.8,147.8,389.1,149.4z"/>
</svg>
