<svg xmlns="http://www.w3.org/2000/svg" xml:space="preserve" class="[ social__icon ]" viewBox="0 0 64 64"><path d="M54.7 9.3c-6-6-14-9.3-22.5-9.3C14.6 0 .3 14.2.3 31.7c0 5.6 1.5 11 4.3 15.9L0 64l16.9-4.4c4.7 2.5 9.9 3.9 15.2 3.9C49.7 63.4 64 49.2 64 31.7c0-8.4-3.3-16.4-9.3-22.4zm-7 33.7c-.7 1.9-3.8 3.5-5.4 3.8-1.4.2-3.1.3-5-.3-1.2-.4-2.6-.9-4.5-1.7-8-3.4-13.2-11.4-13.6-12-.4-.5-3.3-4.3-3.3-8.2 0-3.9 2.1-5.8 2.8-6.6.7-.8 1.6-1 2.1-1h1.5c.5 0 1.1-.2 1.8 1.4.7 1.6 2.3 5.5 2.5 5.9.2.4.3.9.1 1.4-.3.5-.4.9-.8 1.3-.4.5-.8 1-1.2 1.4-.4.4-.8.8-.3 1.6s2.1 3.4 4.4 5.5c3 2.7 5.6 3.5 6.4 3.9.8.4 1.3.3 1.7-.2s2-2.3 2.5-3.1c.5-.8 1.1-.7 1.8-.4.7.3 4.6 2.2 5.4 2.6.8.4 1.3.6 1.5.9.3.4.3 2-.4 3.8z"/></svg>