<?xml version="1.0" encoding="utf-8"?>
<!-- Generator: Adobe Illustrator 26.0.2, SVG Export Plug-In . SVG Version: 6.00 Build 0)  -->
<svg version="1.1" id="Layer_1" xmlns="http://www.w3.org/2000/svg" xmlns:xlink="http://www.w3.org/1999/xlink" x="0px" y="0px"
	 viewBox="0 0 960 640" style="enable-background:new 0 0 960 640;" xml:space="preserve">
<style type="text/css">
	.st0{fill:#FFFFFF;}
	.st1{fill:#0070B7;}
</style>
<g>
	<path class="st0" d="M480,91.3c126.3,0,228.7,102.5,228.7,228.7c0,126.3-102.5,228.7-228.7,228.7S251.3,446.3,251.3,320
		C251.3,193.7,353.7,91.3,480,91.3"/>
	<path class="st1" d="M480,93.5c-124.9,0-226.5,101.6-226.5,226.5S355.1,546.5,480,546.5S706.5,444.9,706.5,320S604.9,93.5,480,93.5
		 M480,551c-127.4,0-231-103.6-231-231S352.6,89,480,89s231,103.6,231,231S607.4,551,480,551"/>
	<path class="st1" d="M481.3,103.7c119.9,0,217.2,97.5,217.2,217.6s-97.3,217.6-217.2,217.6c-119.9,0-217.2-97.5-217.2-217.6
		S361.4,103.7,481.3,103.7"/>
</g>
</svg>
