<?xml version="1.0" encoding="utf-8"?>
<!-- Generator: Adobe Illustrator 26.0.2, SVG Export Plug-In . SVG Version: 6.00 Build 0)  -->
<svg version="1.1" id="Layer_1" xmlns="http://www.w3.org/2000/svg" xmlns:xlink="http://www.w3.org/1999/xlink" x="0px" y="0px"
	 viewBox="0 0 960 640" style="enable-background:new 0 0 960 640;" xml:space="preserve">
<style type="text/css">
	.st0{fill:#FFFFFF;}
	.st1{fill:#0070B7;}
</style>
<g>
	<path class="st0" d="M211.6,96.4c-37.1,0-67,29.9-67,67v312.7c0,37.1,29.9,67.4,67,67.4H748c37.1,0,67.4-30.3,67.4-67.4V163.5
		c0-37.1-30.3-67-67.4-67L211.6,96.4L211.6,96.4z"/>
	<path class="st1" d="M211.6,99.4c-35.3,0-64,28.7-64,64.1v312.7c0,35.5,28.7,64.4,64,64.4H748c35.5,0,64.4-28.9,64.4-64.4V163.5
		c0-35.3-28.9-64.1-64.4-64.1C748,99.4,211.6,99.4,211.6,99.4z M748,546.5H211.6c-38.6,0-70-31.6-70-70.4V163.5
		c0-38.6,31.4-70,70-70H748c38.8,0,70.4,31.4,70.4,70v312.7C818.4,515,786.8,546.5,748,546.5"/>
	<path class="st1" d="M211.6,129.8c-18.5,0-33.3,15.1-33.3,33.7v312.7c0,18.6,14.8,33.7,33.3,33.7H748c18.5,0,33.7-15.1,33.7-33.7
		V163.5c0-18.6-15.1-33.7-33.7-33.7H211.6z"/>
</g>
</svg>
