<?xml version="1.0" encoding="utf-8"?>
<!-- Generator: Adobe Illustrator 26.0.2, SVG Export Plug-In . SVG Version: 6.00 Build 0)  -->
<svg version="1.1" id="Layer_1" xmlns="http://www.w3.org/2000/svg" xmlns:xlink="http://www.w3.org/1999/xlink" x="0px" y="0px"
	 viewBox="0 0 960 640" style="enable-background:new 0 0 960 640;" xml:space="preserve">
<style type="text/css">
	.st0{fill-rule:evenodd;clip-rule:evenodd;fill:#FFFFFF;}
	.st1{fill-rule:evenodd;clip-rule:evenodd;fill:#BD0D2E;}
	.st2{fill-rule:evenodd;clip-rule:evenodd;}
</style>
<g>
	<polygon class="st0" points="603.6,111.1 717.8,111.1 475.9,528.9 237.1,111.1 	"/>
	<path class="st1" d="M709.1,86.6c12.6,0,24.1,6.7,30.4,17.4c6.3,10.7,6.3,24.1,0,34.8L510.4,535.7c-6.3,11-17.9,17.8-30.6,17.8
		c-12.6,0-24.3-6.8-30.6-17.8L220.1,139.1c-5.9-11.1-5.9-24.5,0-35.2c6.3-10.7,18.2-17.4,30.4-17.4H709.1L709.1,86.6z M270.7,133.2
		H689L479.9,494.9L270.7,133.2z"/>
	<path class="st2" d="M490.5,305.6h-4.7l7.1-21.3l6.7,21.3h-4.4H490.5z M489.3,315h-6.7l-3.2,9.9h-11.1l17.4-54.5h13.8l17.8,54.5
		h-11.5l-3.2-9.9h-6.7H489.3z"/>
	<polygon class="st2" points="424.9,270.4 420.6,270.4 413.5,307.1 404.8,270.4 393.3,270.4 405.9,324.9 419,324.9 426.9,285 
		434.8,324.9 448.2,324.9 460.5,270.4 448.6,270.4 440.7,307.1 432.8,270.4 429.7,270.4 	"/>
	<polygon class="st2" points="529.7,270.4 522.6,270.4 540.7,302.8 540.7,324.9 551.4,324.9 551.4,303.2 569.2,270.4 556.9,270.4 
		546.3,291.7 534.8,270.4 	"/>
	<polygon class="st2" points="579.9,153 553,153 553,235.6 608.7,235.6 608.7,220.2 568.8,220.2 568.8,202 602.4,202 602.4,186.6 
		568.8,186.6 568.8,168.4 606.4,168.4 606.4,153 592.5,153 	"/>
	<path class="st2" d="M389.3,179.9l15.4-7.1c-5.1-10.3-17-20.9-34-20.9c-17,0-39.1,12.2-39.1,41.5c0,29.2,21.3,42.7,38.7,42.7
		c11.5,0,19.4-4.7,20.9-5.9v5.5h14.6v-47.4h-35.2V202h20.6c0,7.9-7.1,19.4-20.6,19.4c-13.4,0-22.1-11.9-22.1-27.7
		c0-15.8,9.5-26.1,20.9-26.1C381.4,167.6,386.6,174.3,389.3,179.9"/>
	<rect x="431.6" y="153" class="st2" width="16.6" height="82.6"/>
	<polygon class="st2" points="502,235.6 511.1,235.6 534,153 516.6,153 500,213.1 483,153 465.6,153 488.5,235.6 496.5,235.6 	"/>
</g>
</svg>
