<?xml version="1.0" encoding="utf-8"?>
<!-- Generator: Adobe Illustrator 26.0.2, SVG Export Plug-In . SVG Version: 6.00 Build 0)  -->
<svg version="1.1" id="Layer_1" xmlns="http://www.w3.org/2000/svg" xmlns:xlink="http://www.w3.org/1999/xlink" x="0px" y="0px"
	 viewBox="0 0 960 640" style="enable-background:new 0 0 960 640;" xml:space="preserve">
<style type="text/css">
	.st0{fill:#1A693B;}
</style>
<g>
	<path class="st0" d="M203.1,92.3c-36.5,0-66.1,29.7-66.1,66.1v322.8c0,36.7,29.6,66.5,66.1,66.5h553.7c36.4,0,66.1-29.8,66.1-66.5
		V158.4c0-36.5-29.7-66.1-66.1-66.1H203.1L203.1,92.3z M756.9,553.8H203.1c-39.8,0-72.2-32.6-72.2-72.6V158.4
		c0-39.9,32.4-72.3,72.2-72.3h553.7c39.8,0,72.2,32.4,72.2,72.3v322.8C829.1,521.3,796.7,553.8,756.9,553.8"/>
	<path class="st0" d="M203.1,123.6c-19.2,0-34.8,15.6-34.8,34.8v322.8c0,19.2,15.6,34.8,34.8,34.8h553.7c19.2,0,34.8-15.6,34.8-34.8
		V158.4c0-19.2-15.6-34.8-34.8-34.8C756.9,123.6,203.1,123.6,203.1,123.6z"/>
</g>
</svg>
