<?xml version="1.0" encoding="utf-8"?>
<!-- Generator: Adobe Illustrator 26.0.2, SVG Export Plug-In . SVG Version: 6.00 Build 0)  -->
<svg version="1.1" id="Layer_1" xmlns="http://www.w3.org/2000/svg" xmlns:xlink="http://www.w3.org/1999/xlink" x="0px" y="0px"
	 viewBox="0 0 960 640" style="enable-background:new 0 0 960 640;" xml:space="preserve">
<g>
	<path d="M796.6,484.3c0,19.5-15.5,35.4-35,35.4H198.3c-19.1,0-35-15.9-35-35.4V155.7c0-19.5,15.9-35,35-35h563.3
		c19.5,0,35,15.5,35,35L796.6,484.3L796.6,484.3z M761.7,85.4H198.3c-38.5,0-70.3,31.4-70.3,70.3v328.5c0,38.9,31.8,70.3,70.3,70.3
		h563.3c38.9,0,70.3-31.4,70.3-70.3V155.7C832,116.8,800.6,85.4,761.7,85.4"/>
</g>
</svg>
