<?xml version="1.0" encoding="utf-8"?>
<!-- Generator: Adobe Illustrator 26.0.2, SVG Export Plug-In . SVG Version: 6.00 Build 0)  -->
<svg version="1.1" id="Layer_1" xmlns="http://www.w3.org/2000/svg" xmlns:xlink="http://www.w3.org/1999/xlink" x="0px" y="0px"
	 viewBox="0 0 960 640" style="enable-background:new 0 0 960 640;" xml:space="preserve">
<style type="text/css">
	.st0{fill:#FFFFFF;}
	.st1{fill:#BD0D2E;}
	.st2{fill-rule:evenodd;clip-rule:evenodd;fill:#BD0D2E;}
	.st3{fill-rule:evenodd;clip-rule:evenodd;fill:#FFFFFF;}
</style>
<polygon class="st0" points="419.1,483.1 406.7,495.5 406.7,513 419.1,525.4 436.6,525.4 449,513 449,495.5 436.6,483.1 "/>
<g>
	<path class="st1" d="M576.5,554.5H383.5c-0.4,0-0.8-0.2-1.1-0.4L245.9,417.6c-0.3-0.3-0.5-0.7-0.5-1.1V223.1c0-0.4,0.2-0.8,0.5-1.1
		L382.4,85.9c0.3-0.3,0.7-0.4,1.1-0.4h192.9c0.4,0,0.8,0.2,1.1,0.4L714.1,222c0.3,0.3,0.5,0.7,0.5,1.1v193.3c0,0.4-0.2,0.8-0.5,1.1
		L577.6,554.1C577.3,554.4,576.9,554.5,576.5,554.5 M384.2,551.4h191.7l135.6-135.6V223.8L575.8,88.6H384.2L248.6,223.8v192.1
		L384.2,551.4z"/>
	<polygon class="st2" points="389.8,537.2 570.2,537.2 697.6,409.8 697.6,229.8 570.2,102.4 389.8,102.4 262.4,229.8 262.4,409.8 	
		"/>
	<path class="st3" d="M525.2,268.1c28.4,0,52.5,23.3,52.5,56.4c0,32.8-22.9,57.2-52.5,57.2c-29.2,0-52.1-24.5-52.1-57.2
		C473.1,291.4,497.2,268.1,525.2,268.1 M525.2,285.5c22.1,0,33.1,21.7,33.1,39.1c0,17.8-10.6,40.2-33.1,40.2
		c-22.1,0-32.7-22.5-32.7-40.2C492.4,307.2,503.5,285.5,525.2,285.5"/>
	<path class="st3" d="M639.2,286.3h-18.5v36.7h19.7c9.9,0,17.8-9.1,17.8-18.5C658.2,294.9,650.6,286.3,639.2,286.3 M645.5,339.1
		h-24.9V379h-18.5V270.1h42.6c18.2,0,32.4,17.8,32.4,35.5C677.1,321.8,661.3,339.1,645.5,339.1"/>
	<path class="st3" d="M367,286.8l-14.7,11.1c-6-5.9-13.9-12.7-26.2-12.7s-20.3,7.2-20.7,15.1c0,10.7,7.9,13.5,24.2,16.3
		c11.5,2,19.9,2.8,27.8,9.1c7.5,5.9,11.5,13.9,11.5,23.8c0,9.9-6.4,34.2-41.3,34.2c-27.8,0-41.7-15.5-46.5-21.5l16.3-11.9
		c7.2,10.7,19.5,16.7,28.2,16.7s23.8-3.6,23.8-17.1c0-13.5-16.3-14.7-31.8-17.5S286,322.1,286,300.7c0-21.1,21.1-31.4,40.1-31.4
		C345.5,269.3,358.6,275.7,367,286.8"/>
	<polygon class="st3" points="420.2,379 428.9,379 428.9,287.1 458.1,287.1 458.1,270.1 380.4,270.1 380.4,287.1 409.6,287.1 
		409.6,379 417.8,379 	"/>
</g>
</svg>
