<?xml version="1.0" encoding="utf-8"?>
<!-- Generator: Adobe Illustrator 26.0.2, SVG Export Plug-In . SVG Version: 6.00 Build 0)  -->
<svg version="1.1" id="Layer_1" xmlns="http://www.w3.org/2000/svg" xmlns:xlink="http://www.w3.org/1999/xlink" x="0px" y="0px"
	 viewBox="0 0 960 640" style="enable-background:new 0 0 960 640;" xml:space="preserve">
<g>
	<path d="M795.7,483.6c0,19.4-15.4,35.2-34.9,35.2H199.2c-19,0-34.9-15.8-34.9-35.2V156.4c0-19.4,15.8-35.2,34.9-35.2h561.6
		c19.4,0,34.9,15.8,34.9,35.2V483.6z M830.9,483.6V156.4c0-38.8-31.3-70.5-70.1-70.5H199.2c-38.4,0-70.1,31.7-70.1,70.5v327.1
		c0,38.8,31.7,70.5,70.1,70.5h561.6C799.6,554.1,830.9,522.4,830.9,483.6"/>
</g>
</svg>
