<svg xmlns="http://www.w3.org/2000/svg" xml:space="preserve" viewBox="0 0 512 512"><circle cx="256" cy="256" r="248" fill="#004EE4"/><path fill="#FFF" d="M103.5 286.4c-8.4 0-15.8-3-21.6-8.6-5.8-5.6-8.6-13-8.6-21.6 0-8.4 2.8-15.6 8.4-21.6 5.6-6 12.6-8.8 21-8.8 8.2 0 15.4 3 21.6 9.2l11-11.6c-8.8-8.6-19.6-12.8-32.6-12.8-13.4 0-24.8 4.2-33.4 13-8.8 8.8-13.2 19.6-13.2 32.4 0 12.8 4.4 23.6 13.2 32.4 8.6 8.8 20 13.2 33.6 13.2 7.8 0 15-1.4 21.6-4.6 6.4-3 11.6-7.2 15.8-12.2l-11.8-10.6c-6.4 8.2-14.8 12.2-25 12.2zM152.1 210.5h16.4v89.8h-16.4zM212.3 237.7c-8.8 0-16 3.2-21.6 9.4-5.6 6.2-8.4 13.8-8.4 22.6 0 9.4 3 17.2 9.2 23 6 6 13.8 8.8 23 8.8 4.8 0 9.4-1 14-3 4.4-2 8.2-4.6 11.2-8l-9.4-9.4c-4.4 4.6-9.4 7.2-15.4 7.2-4.4 0-8-1.4-11.2-4-3.2-2.6-5-6.2-5.2-10.6H241c.2-1.4.4-3 .4-4.6 0-8.6-2.8-16-8.2-22.2-5.5-6.2-12.4-9.2-20.9-9.2zm-13.2 24c.4-3 2-5.2 4.4-7.6 2.6-2.2 5.4-3.2 8.6-3.2 3.2 0 6 1 8.4 3.2 2.4 2.4 3.6 4.6 3.8 7.6h-25.2zM279.6 276.4l-16.8-37.5h-17l28.2 61.5h11.4l28.2-61.5h-17.2zM376.2 269.2c0-8.6-2.8-16-8.2-22.2s-12.4-9.2-20.8-9.2c-8.8 0-16 3.2-21.6 9.4s-8.4 13.8-8.4 22.6c0 9.4 3 17.2 9.2 23 6 6 13.8 8.8 23 8.8 4.8 0 9.4-1 14-3 4.4-2 8.2-4.6 11.2-8l-9.4-9.4c-4.4 4.6-9.4 7.2-15.4 7.2-4.4 0-8-1.4-11.2-4-3.2-2.6-5-6.2-5.2-10.6h42.4c.2-1.4.4-2.9.4-4.6zm-42.2-7.5c.4-3 2-5.2 4.4-7.6 2.6-2.2 5.4-3.2 8.6-3.2 3.2 0 6 1 8.4 3.2 2.4 2.4 3.6 4.6 3.8 7.6H334zM429.2 238.1l-1.8 15.4c-1.2-.4-3.2-.6-6-.6-3.2 0-6.4.8-9 2.8-2.8 2-4.8 4-6 6v38.6H390v-61.4h15.8v6.2c4-5 10-7.4 17.8-7.4 1.4 0 3.2.2 5.6.4zM433.6 238.9h8.8v2h-3.2v10.2h-2.4v-10.2h-3.2v-2zm10.4 0h1.4l4.6 7 4.6-7h1.4v12.2h-2.2v-7l-3 4.6h-1.4l-3-4.6v7h-2.2v-12.2h-.2z"/></svg>