<?xml version="1.0" encoding="UTF-8" standalone="no"?>
<!-- Created with Inkscape (http://www.inkscape.org/) -->

<svg
   xmlns:dc="http://purl.org/dc/elements/1.1/"
   xmlns:cc="http://creativecommons.org/ns#"
   xmlns:rdf="http://www.w3.org/1999/02/22-rdf-syntax-ns#"
   xmlns:svg="http://www.w3.org/2000/svg"
   xmlns="http://www.w3.org/2000/svg"
   xmlns:sodipodi="http://sodipodi.sourceforge.net/DTD/sodipodi-0.dtd"
   xmlns:inkscape="http://www.inkscape.org/namespaces/inkscape"
   width="606mm"
   height="606mm"
   viewBox="0 0 606 606"
   version="1.1"
   id="svg8"
   inkscape:version="0.92.4 (5da689c313, 2019-01-14)"
   sodipodi:docname="Australia.svg">
  <defs
     id="defs2" />
  <sodipodi:namedview
     id="base"
     pagecolor="#ffffff"
     bordercolor="#666666"
     borderopacity="1.0"
     inkscape:pageopacity="0.0"
     inkscape:pageshadow="2"
     inkscape:zoom="0.24748737"
     inkscape:cx="1726.7793"
     inkscape:cy="882.03344"
     inkscape:document-units="mm"
     inkscape:current-layer="layer1"
     showgrid="false"
     inkscape:window-width="1920"
     inkscape:window-height="1057"
     inkscape:window-x="-8"
     inkscape:window-y="-8"
     inkscape:window-maximized="1" />
  <metadata
     id="metadata5">
    <rdf:RDF>
      <cc:Work
         rdf:about="">
        <dc:format>image/svg+xml</dc:format>
        <dc:type
           rdf:resource="http://purl.org/dc/dcmitype/StillImage" />
        <dc:title></dc:title>
      </cc:Work>
    </rdf:RDF>
  </metadata>
  <g
     inkscape:label="Layer 1"
     inkscape:groupmode="layer"
     id="layer1"
     transform="translate(0,309)">
    <rect
       style="opacity:1;fill:#000000;fill-opacity:1;fill-rule:nonzero;stroke:none;stroke-width:115.36732483;stroke-linecap:square;stroke-linejoin:round;stroke-miterlimit:4;stroke-dasharray:none;stroke-opacity:1"
       id="rect10"
       width="604"
       height="604"
       x="1"
       y="-308"
       rx="62"
       ry="62" />
    <rect
       ry="60"
       rx="60"
       y="-306"
       x="3"
       height="600"
       width="600"
       id="rect817"
       style="opacity:1;fill:#ffffff;fill-opacity:1;fill-rule:nonzero;stroke:none;stroke-width:114.60329437;stroke-linecap:square;stroke-linejoin:round;stroke-miterlimit:4;stroke-dasharray:none;stroke-opacity:1" />
    <circle
       style="opacity:1;fill:#be121e;fill-opacity:1;fill-rule:nonzero;stroke:none;stroke-width:105.62014008;stroke-linecap:square;stroke-linejoin:round;stroke-miterlimit:4;stroke-dasharray:none;stroke-opacity:1"
       id="path828"
       cx="303"
       cy="-6.0000134"
       r="294" />
    <rect
       style="opacity:1;fill:#ffffff;fill-opacity:1;fill-rule:nonzero;stroke:none;stroke-width:96.93484497;stroke-linecap:square;stroke-linejoin:round;stroke-miterlimit:4;stroke-dasharray:none;stroke-opacity:1"
       id="rect20"
       width="492"
       height="120"
       x="57"
       y="-66.000015" />
    <g
       aria-label="NO"
       style="font-style:normal;font-variant:normal;font-weight:normal;font-stretch:normal;font-size:134.00576782px;line-height:0;font-family:'Roadgeek 2005 Series D';-inkscape-font-specification:'Roadgeek 2005 Series D';letter-spacing:0px;word-spacing:0px;fill:#000000;fill-opacity:1;stroke:none;stroke-width:3.35014391"
       id="text829">
      <path
         d="m 279.41008,-120.60806 -34.30548,-60.83862 v 60.83862 h -14.20461 v -89.78387 h 14.20461 l 32.69741,57.35447 v -57.35447 h 14.20461 v 89.78387 z"
         style="font-style:normal;font-variant:normal;font-weight:normal;font-stretch:normal;line-height:0;font-family:'Roadgeek 2005 Series D';-inkscape-font-specification:'Roadgeek 2005 Series D';fill:#ffffff;stroke:none;stroke-width:3.35014391"
         id="path835"
         inkscape:connector-curvature="0" />
      <path
         d="m 375.0996,-165.36599 q 0,10.72046 -2.54611,20.50288 -2.54611,9.78242 -7.23631,15.81268 -7.50432,10.05044 -21.70893,10.05044 -9.51441,0 -15.67868,-3.88617 -6.16426,-3.88617 -10.18444,-12.19453 -2.81412,-5.76224 -4.55619,-13.9366 -1.74208,-8.30835 -1.74208,-16.3487 0,-11.12248 2.54611,-20.63689 2.68012,-9.51441 7.23631,-15.94668 4.02018,-5.09222 9.51441,-7.50433 Q 336.37194,-212 344.14427,-212 q 8.57637,0 14.60663,3.88617 6.03026,3.88617 10.31844,12.19453 2.81412,6.03026 4.42219,14.0706 1.60807,8.04035 1.60807,16.48271 z m -14.20461,0 q 0,-7.63833 -1.34006,-14.0706 -1.34005,-6.56629 -4.02017,-11.12248 -2.14409,-3.48415 -4.95821,-5.09222 -2.68012,-1.60807 -6.70029,-1.87608 -5.22623,-0.26802 -8.71038,2.4121 -3.48415,2.68012 -5.76224,8.71038 -1.74208,4.02017 -2.68012,9.78242 -0.80403,5.62824 -0.80403,11.25648 0,7.23631 1.34005,13.9366 1.34006,6.70029 4.02018,10.98847 2.14409,3.48415 5.09222,5.22623 2.94812,1.74207 7.23631,1.74207 4.95821,0 8.17435,-2.68011 3.35014,-2.68012 5.62824,-8.71038 0.67003,-1.74207 1.34006,-4.15418 0.67003,-2.54611 1.07204,-5.22622 0.53603,-2.81412 0.80404,-5.62824 0.26801,-2.81412 0.26801,-5.49424 z"
         style="font-style:normal;font-variant:normal;font-weight:normal;font-stretch:normal;line-height:0;font-family:'Roadgeek 2005 Series D';-inkscape-font-specification:'Roadgeek 2005 Series D';fill:#ffffff;stroke:none;stroke-width:3.35014391"
         id="path837"
         inkscape:connector-curvature="0" />
    </g>
    <g
       aria-label="ENTRY"
       style="font-style:normal;font-variant:normal;font-weight:normal;font-stretch:normal;font-size:138.80596924px;line-height:0;font-family:'Roadgeek 2005 Series D';-inkscape-font-specification:'Roadgeek 2005 Series D';letter-spacing:0px;word-spacing:0px;fill:#000000;fill-opacity:1;stroke:none;stroke-width:3.47014904"
       id="text833">
      <path
         d="M 116.09999,188 V 95.000003 h 54.82835 v 14.713427 h -40.11492 v 22.76418 h 27.06716 v 14.99105 h -27.06716 v 25.5403 h 43.02985 V 188 Z"
         style="font-style:normal;font-variant:normal;font-weight:normal;font-stretch:normal;line-height:0;font-family:'Roadgeek 2005 Series D';-inkscape-font-specification:'Roadgeek 2005 Series D';fill:#ffffff;stroke:none;stroke-width:3.47014904"
         id="path840"
         inkscape:connector-curvature="0" />
      <path
         d="M 239.81732,188 204.28298,124.98209 V 188 H 189.56955 V 95.000003 h 14.71343 l 33.86867,59.408957 V 95.000003 h 14.71343 V 188 Z"
         style="font-style:normal;font-variant:normal;font-weight:normal;font-stretch:normal;line-height:0;font-family:'Roadgeek 2005 Series D';-inkscape-font-specification:'Roadgeek 2005 Series D';fill:#ffffff;stroke:none;stroke-width:3.47014904"
         id="path842"
         inkscape:connector-curvature="0" />
      <path
         d="M 302.72895,108.04776 V 188 H 288.01552 V 108.04776 H 266.7782 V 95.000003 h 57.46568 v 13.047757 z"
         style="font-style:normal;font-variant:normal;font-weight:normal;font-stretch:normal;line-height:0;font-family:'Roadgeek 2005 Series D';-inkscape-font-specification:'Roadgeek 2005 Series D';fill:#ffffff;stroke:none;stroke-width:3.47014904"
         id="path844"
         inkscape:connector-curvature="0" />
      <path
         d="M 385.19705,188 370.206,147.46866 H 352.57764 V 188 H 337.86421 V 95.000003 h 30.67612 q 5.41343,0 9.3,0.69403 3.88657,0.55522 7.35672,2.2209 3.05373,1.52686 5.55224,4.025367 2.63731,2.3597 4.44179,5.55224 1.94328,3.05373 2.91492,6.66268 1.11045,3.47015 1.11045,6.9403 0,3.74776 -1.11045,7.35672 -0.97164,3.47015 -2.91492,6.66269 -1.80448,3.05373 -4.5806,5.55223 -2.63731,2.49851 -5.82985,3.88657 L 401.15973,188 Z m -0.69403,-66.90448 q 0,-2.91492 -1.52687,-5.55224 -1.52686,-2.63731 -4.30298,-4.16418 -1.80448,-0.97164 -3.33135,-1.24925 -1.52686,-0.41642 -5.13582,-0.41642 h -17.62836 v 22.76418 H 370.206 q 3.47015,0 4.99702,-0.27761 1.66567,-0.27761 3.47015,-1.24925 2.77612,-1.52687 4.30298,-4.16418 1.52687,-2.77612 1.52687,-5.69105 z"
         style="font-style:normal;font-variant:normal;font-weight:normal;font-stretch:normal;line-height:0;font-family:'Roadgeek 2005 Series D';-inkscape-font-specification:'Roadgeek 2005 Series D';fill:#ffffff;stroke:none;stroke-width:3.47014904"
         id="path846"
         inkscape:connector-curvature="0" />
      <path
         d="M 457.55783,147.46866 V 188 H 442.8444 V 147.46866 L 410.22499,95.000003 h 17.62836 l 22.20896,35.950747 22.48656,-35.950747 h 17.35075 z"
         style="font-style:normal;font-variant:normal;font-weight:normal;font-stretch:normal;line-height:0;font-family:'Roadgeek 2005 Series D';-inkscape-font-specification:'Roadgeek 2005 Series D';fill:#ffffff;stroke:none;stroke-width:3.47014904"
         id="path848"
         inkscape:connector-curvature="0" />
    </g>
  </g>
</svg>
